# File created by Blade
# Date/Time:  Thu Jan 22 15:50:06 2015
#---------------------------------------------------------
:version 1.10
:name HOM
:units
  mass 1.0
  length 1.000000
  angle deg
:documentation
     Acclaim Skeleton File
:root
   axis xyz
   order TX TY TZ RX RY RZ
   position 0.000000 0.000000 0.000000
   orientation 0 0 0
:bonedata
   begin
      id 1
      name RightUpLeg_dum
      direction -1.000000 0.000000 0.000000
      length 3.766986
      axis 0.0 0.0 0.0 xyz
   end
   begin
      id 2
      name LeftUpLeg_dum
      direction 1.000000 0.000000 0.000000
      length 3.766986
      axis 0.0 0.0 0.0 xyz
   end
   begin
      id 3
      name Spine_dum
      direction 0.000000 1.000000 0.000000
      length 7.779697
      axis 0.0 0.0 0.0 xyz
   end
   begin
      id 4
      name RightUpLeg
      direction 0.000000 -1.000000 0.000000
      length 18.017682
      axis 0.0 0.0 0.0 xyz
      dof rx ry rz
   end
   begin
      id 5
      name RightLeg
      direction 0.000000 -1.000000 0.000000
      length 16.881075
      axis 0.0 0.0 0.0 xyz
      dof rx ry rz
   end
   begin
      id 6
      name RightFoot
      direction 0.000000 -0.258819 0.965926
      length 5.770812
      axis 15.0 0.0 0.0 xyz
      dof rx ry rz
   end
   begin
      id 7
      name RightToeBase
      direction 0.000000 0.000000 1.000000
      length 2.952750
      axis 0.0 0.0 0.0 xyz
      dof rx ry rz
   end
   begin
      id 8
      name LeftUpLeg
      direction 0.000000 -1.000000 0.000000
      length 18.017682
      axis 0.0 0.0 0.0 xyz
      dof rx ry rz
   end
   begin
      id 9
      name LeftLeg
      direction 0.000000 -1.000000 0.000000
      length 16.881075
      axis 0.0 0.0 0.0 xyz
      dof rx ry rz
   end
   begin
      id 10
      name LeftFoot
      direction 0.000000 -0.258819 0.965926
      length 5.770812
      axis 15.0 0.0 0.0 xyz
      dof rx ry rz
   end
   begin
      id 11
      name LeftToeBase
      direction 0.000000 0.000000 1.000000
      length 2.952750
      axis 0.0 0.0 0.0 xyz
      dof rx ry rz
   end
   begin
      id 12
      name Spine
      direction 0.000000 1.000000 0.000000
      length 0.000000
      axis 0.0 0.0 0.0 xyz
      dof rx ry rz
   end
   begin
      id 13
      name Spine_dum1
      direction 0.000000 1.000000 0.000000
      length 10.941760
      axis 0.0 0.0 0.0 xyz
   end
   begin
      id 14
      name Spine_dum2
      direction 0.000000 1.000000 0.000000
      length 10.941760
      axis 0.0 0.0 0.0 xyz
   end
   begin
      id 15
      name Spine_dum3
      direction 0.000000 1.000000 0.000000
      length 16.646042
      axis 0.0 0.0 0.0 xyz
   end
   begin
      id 16
      name RightShoulder
      direction -1.000000 0.000000 0.000000
      length 7.708937
      axis 0.0 0.0 90.0 xyz
      dof rx ry rz
   end
   begin
      id 17
      name RightArm
      direction -1.000000 0.000000 0.000000
      length 11.521345
      axis 0.0 0.0 90.0 xyz
      dof rx ry rz
   end
   begin
      id 18
      name RightForeArm
      direction -1.000000 0.000000 0.000000
      length 10.175898
      axis 0.0 0.0 90.0 xyz
      dof ry rz rx
   end
   begin
      id 19
      name RightHand
      direction -1.000000 0.000000 0.000000
      length 0.000000
      axis 0.0 0.0 90.0 xyz
      dof rx ry rz
   end
   begin
      id 20
      name RightHand_dum1
      direction -1.000000 0.000000 0.000000
      length 3.937000
      axis 0.0 0.0 90.0 xyz
   end
   begin
      id 21
      name RightHand_dum2
      direction 0.000000 0.000000 0.000000
      length 0.000000
      axis 0.0 0.0 90.0 xyz
   end
   begin
      id 22
      name RightHandThumb1
      direction 0.000000 0.000000 1.000000
      length 3.937000
      axis 0.0 0.0 90.0 xyz
      dof rx rz ry
   end
   begin
      id 23
      name LeftShoulder
      direction 1.000000 0.000000 0.000000
      length 7.708937
      axis 0.0 0.0 -90.0 xyz
      dof rx ry rz
   end
   begin
      id 24
      name LeftArm
      direction 1.000000 0.000000 0.000000
      length 11.521345
      axis 0.0 0.0 -90.0 xyz
      dof rx ry rz
   end
   begin
      id 25
      name LeftForeArm
      direction 1.000000 0.000000 0.000000
      length 10.175898
      axis 0.0 0.0 -90.0 xyz
      dof ry rz rx
   end
   begin
      id 26
      name LeftHand
      direction 1.000000 0.000000 0.000000
      length 0.000000
      axis 0.0 0.0 -90.0 xyz
      dof rx ry rz
   end
   begin
      id 27
      name LeftHand_dum1
      direction 1.000000 0.000000 0.000000
      length 3.937000
      axis 0.0 0.0 -90.0 xyz
   end
   begin
      id 28
      name LeftHand_dum2
      direction 0.000000 0.000000 0.000000
      length 0.000000
      axis 0.0 0.0 -90.0 xyz
   end
   begin
      id 29
      name LeftHandThumb1
      direction 0.000000 0.000000 1.000000
      length 3.937000
      axis 0.0 0.0 -90.0 xyz
      dof rx rz ry
   end
   begin
      id 30
      name Head
      direction 0.000000 1.000000 0.000000
      length 4.527550
      axis 0.0 0.0 0.0 xyz
      dof rx ry rz
   end
:hierarchy
   begin
      root RightUpLeg_dum LeftUpLeg_dum Spine_dum
      RightUpLeg_dum RightUpLeg
      LeftUpLeg_dum LeftUpLeg
      Spine_dum Spine
      RightUpLeg RightLeg
      RightLeg RightFoot
      RightFoot RightToeBase
      LeftUpLeg LeftLeg
      LeftLeg LeftFoot
      LeftFoot LeftToeBase
      Spine Spine_dum1 Spine_dum2 Spine_dum3
      Spine_dum1 RightShoulder
      Spine_dum2 LeftShoulder
      Spine_dum3 Head
      RightShoulder RightArm
      RightArm RightForeArm
      RightForeArm RightHand
      RightHand RightHand_dum1 RightHand_dum2
      RightHand_dum2 RightHandThumb1
      LeftShoulder LeftArm
      LeftArm LeftForeArm
      LeftForeArm LeftHand
      LeftHand LeftHand_dum1 LeftHand_dum2
      LeftHand_dum2 LeftHandThumb1
   end

# File created by Blade
# Date/Time:  Thu Jan 22 15:49:58 2015
# Frame Rate: 120.000 fps
#------------------------------------------------------
:FULLY-SPECIFIED
:DEGREES
275
root 3.270987 37.025887 5.667341 -6.932833 -6.398478 3.302425
RightUpLeg 15.197424 -3.558067 -6.828352
RightLeg -4.719704 -0.000000 0.000000
RightFoot -12.912904 -11.197439 16.617883
RightToeBase 15.184239 -0.000000 -0.000000
LeftUpLeg 14.872397 8.523230 1.603109
LeftLeg -1.909587 -0.000000 0.000000
LeftFoot -8.790423 8.151096 -17.225109
LeftToeBase 8.265423 -0.000000 -0.000000
Spine 1.425166 -5.063924 -0.677066
RightShoulder -2.711183 7.845446 -49.013179
RightArm 84.866439 48.920528 70.204607
RightForeArm 74.232369 -0.000000 94.136034
RightHand 10.297751 -0.000000 14.550054
RightHandThumb1 -24.326973 -0.000000 -32.862282
LeftShoulder -25.163672 10.307028 39.788858
LeftArm 151.644949 -45.082034 -116.658839
LeftForeArm -7.717828 -0.000000 137.818112
LeftHand -15.834085 -0.000000 22.445715
LeftHandThumb1 -26.253704 0.000000 33.147579
Head 45.112010 15.625506 -0.993031
276
root 3.268950 37.026826 5.674984 -6.898572 -6.394196 3.306648
RightUpLeg 15.162937 -3.534959 -6.821695
RightLeg -4.691363 -0.000000 0.000000
RightFoot -12.931745 -11.224596 16.614860
RightToeBase 15.131833 -0.000000 -0.000000
LeftUpLeg 14.834327 8.498815 1.591390
LeftLeg -1.881510 -0.000000 0.000000
LeftFoot -8.801404 8.163939 -17.244720
LeftToeBase 8.220014 -0.000000 -0.000000
Spine 1.307801 -5.034081 -0.634124
RightShoulder -2.714481 8.013969 -49.098214
RightArm 84.908669 48.919932 70.238669
RightForeArm 74.632149 0.000000 94.515688
RightHand 10.354783 -0.000000 14.714962
RightHandThumb1 -24.326973 -0.000000 -32.862282
LeftShoulder -25.139424 10.242398 39.736153
LeftArm 151.550598 -45.062220 -116.432671
LeftForeArm -7.635713 0.000000 138.332182
LeftHand -15.903307 -0.000000 22.584384
LeftHandThumb1 -26.253704 0.000000 33.147579
Head 44.939398 15.639492 -1.111694
277
root 3.262834 37.028790 5.681781 -6.865668 -6.397956 3.282960
RightUpLeg 15.154902 -3.435620 -6.770640
RightLeg -4.710605 -0.000000 0.000000
RightFoot -12.920019 -11.298752 16.655558
RightToeBase 15.071112 -0.000000 -0.000000
LeftUpLeg 14.805360 8.499512 1.621244
LeftLeg -1.860364 -0.000000 0.000000
LeftFoot -8.818286 8.141891 -17.282602
LeftToeBase 8.248061 -0.000000 -0.000000
Spine 1.192736 -5.017572 -0.562445
RightShoulder -2.682401 8.402717 -49.200439
RightArm 84.633517 48.873261 70.099646
RightForeArm 75.069140 -0.000000 94.963551
RightHand 10.343486 0.000000 14.821766
RightHandThumb1 -24.326973 -0.000000 -32.862282
LeftShoulder -25.135663 10.169665 39.681820
LeftArm 151.332746 -45.084247 -116.098843
LeftForeArm -7.178696 -0.000000 138.801958
LeftHand -15.884819 -0.000000 22.533442
LeftHandThumb1 -26.253704 0.000000 33.147579
Head 44.765841 15.648225 -1.346618
278
root 3.258707 37.029463 5.686706 -6.812876 -6.383852 3.263721
RightUpLeg 15.095591 -3.428744 -6.735375
RightLeg -4.670802 -0.000000 0.000000
RightFoot -12.932396 -11.336087 16.646380
RightToeBase 14.986700 -0.000000 -0.000000
LeftUpLeg 14.743664 8.474777 1.635016
LeftLeg -1.826372 -0.000000 0.000000
LeftFoot -8.830780 8.146632 -17.271731
LeftToeBase 8.264378 -0.000000 -0.000000
Spine 1.062252 -5.010741 -0.498800
RightShoulder -2.655778 8.607461 -49.320708
RightArm 84.564053 48.915740 70.177007
RightForeArm 75.325646 -0.000000 95.464884
RightHand 10.317807 -0.000000 14.898559
RightHandThumb1 -24.326973 -0.000000 -32.862282
LeftShoulder -25.127267 10.157698 39.593601
LeftArm 151.332367 -45.019347 -115.961466
LeftForeArm -7.400738 -0.000000 139.259157
LeftHand -15.822013 -0.000000 22.767770
LeftHandThumb1 -26.253704 0.000000 33.147579
Head 44.589535 15.672466 -1.401412
279
root 3.254492 37.032033 5.693763 -6.795571 -6.382358 3.261627
RightUpLeg 15.075142 -3.421818 -6.722479
RightLeg -4.641338 -0.000000 0.000000
RightFoot -12.933213 -11.362585 16.641048
RightToeBase 14.966666 -0.000000 -0.000000
LeftUpLeg 14.727805 8.462878 1.638282
LeftLeg -1.810193 -0.000000 0.000000
LeftFoot -8.827659 8.157076 -17.296667
LeftToeBase 8.278953 -0.000000 -0.000000
Spine 0.981387 -4.985012 -0.451449
RightShoulder -2.682591 8.886568 -49.410899
RightArm 84.430017 48.887792 70.134586
RightForeArm 75.679045 -0.000000 95.916363
RightHand 10.236701 -0.000000 15.003244
RightHandThumb1 -24.326973 -0.000000 -32.862282
LeftShoulder -25.127972 10.100095 39.515391
LeftArm 151.202900 -44.996247 -115.748426
LeftForeArm -7.545699 -0.000000 139.704448
LeftHand -15.642197 0.000000 22.934915
LeftHandThumb1 -26.253704 0.000000 33.147579
Head 44.419730 15.694348 -1.517502
280
root 3.250041 37.034646 5.699906 -6.767238 -6.372847 3.261092
RightUpLeg 15.043152 -3.445230 -6.710967
RightLeg -4.612591 -0.000000 0.000000
RightFoot -12.945484 -11.392335 16.657429
RightToeBase 14.966578 -0.000000 -0.000000
LeftUpLeg 14.699131 8.465510 1.644511
LeftLeg -1.792427 -0.000000 0.000000
LeftFoot -8.810978 8.136429 -17.306370
LeftToeBase 8.257174 -0.000000 -0.000000
Spine 0.906115 -4.972776 -0.456179
RightShoulder -2.713095 9.139848 -49.437250
RightArm 84.319687 48.909674 70.129001
RightForeArm 76.034727 0.000000 96.404226
RightHand 10.313867 -0.000000 15.132123
RightHandThumb1 -24.326973 -0.000000 -32.862282
LeftShoulder -25.198757 10.077911 39.453467
LeftArm 151.151748 -44.893135 -115.627391
LeftForeArm -7.983829 -0.000000 140.114777
LeftHand -15.507707 -0.000000 22.946553
LeftHandThumb1 -26.253704 0.000000 33.147579
Head 44.248763 15.614482 -1.568728
